<?xml version="1.0" encoding="utf-8"?>
<!-- Generator: Adobe Illustrator 16.0.0, SVG Export Plug-In . SVG Version: 6.00 Build 0)  -->
<!DOCTYPE svg PUBLIC "-//W3C//DTD SVG 1.1//EN" "http://www.w3.org/Graphics/SVG/1.1/DTD/svg11.dtd">
<svg version="1.1" id="Layer_1" xmlns="http://www.w3.org/2000/svg" xmlns:xlink="http://www.w3.org/1999/xlink" x="0px" y="0px"
	 width="494.836px" height="638.601px" viewBox="0 0 494.836 638.601" enable-background="new 0 0 494.836 638.601"
	 xml:space="preserve">
<path fill="#D6DE23" d="M319.3,0C142.955,0,0,142.956,0,319.3c0,176.344,142.955,319.299,319.3,319.299
	c176.346,0,244.25-208.922,88.594-319.299C252.237,208.923,495.646,0,319.3,0L319.3,0z"/>
<g>
	<defs>
		<path id="SVGID_1_" d="M319.3,0C142.955,0,0,142.956,0,319.3c0,176.344,142.955,319.299,319.3,319.299
			c176.346,0,244.25-208.922,88.594-319.299C252.237,208.923,495.646,0,319.3,0L319.3,0z"/>
	</defs>
	<clipPath id="SVGID_2_">
		<use xlink:href="#SVGID_1_"  overflow="visible"/>
	</clipPath>
	<g clip-path="url(#SVGID_2_)">
		
			<linearGradient id="SVGID_3_" gradientUnits="userSpaceOnUse" x1="-49.4807" y1="738.6401" x2="-49.4807" y2="739.6401" gradientTransform="matrix(-494.8363 0 0 -638.6 -24237.6191 472334.25)">
			<stop  offset="0" style="stop-color:#6FE6C7"/>
			<stop  offset="1" style="stop-color:#E0E31C"/>
		</linearGradient>
		<path opacity="0.3" fill="url(#SVGID_3_)" enable-background="new    " d="M494.836,319.3c0-176.344-142.955-319.3-319.3-319.3
			S-68.716,208.922,86.944,319.3c155.659,110.377-87.752,319.299,88.593,319.299C351.88,638.599,494.836,495.644,494.836,319.3z"/>
	</g>
</g>
</svg>
