<?xml version="1.0" encoding="utf-8"?>
<!-- Generator: Adobe Illustrator 16.0.0, SVG Export Plug-In . SVG Version: 6.00 Build 0)  -->
<!DOCTYPE svg PUBLIC "-//W3C//DTD SVG 1.1//EN" "http://www.w3.org/Graphics/SVG/1.1/DTD/svg11.dtd">
<svg version="1.1" id="Layer_1" xmlns="http://www.w3.org/2000/svg" xmlns:xlink="http://www.w3.org/1999/xlink" x="0px" y="0px"
	 width="1692px" height="517px" viewBox="0 0 1692 517" enable-background="new 0 0 1692 517" xml:space="preserve">
<g>
	<g transform="translate(-159 -5841)">
		<path fill="#D6DE23" d="M137.59,6393c62.21-79.012,157.84-232.311,251.61-305.49c347.561-270.678,504.052,31.945,1066.279-204.393
			c356.452-149.838,405.562,239.187,393.783,508.734L137.59,6393z"/>
		<path opacity="0.05" fill="#FFFFFF" enable-background="new    " d="M402.485,6392.999
			c-41.396-185.711,96.459-75.542,228.027-171.832c255.548-186.624,370.256-9.856,783.643-172.8
			c413.387-162.944,264.57,344.636,264.57,344.636L402.485,6392.999z"/>
		
			<linearGradient id="SVGID_1_" gradientUnits="userSpaceOnUse" x1="2828.8225" y1="0.9482" x2="2828.8274" y2="1.7578" gradientTransform="matrix(1309.8024 0 0 542.2887 -3704035 5371)">
			<stop  offset="0" style="stop-color:#6FE6C7"/>
			<stop  offset="1" style="stop-color:#E0E31C"/>
		</linearGradient>
		<path opacity="0.3" fill="url(#SVGID_1_)" enable-background="new    " d="M1815.317,6392.999
			c41.4-185.711-96.459-75.543-228.027-171.832c-255.548-186.623-370.257-9.856-783.643-172.804
			c-413.386-162.948-264.57,344.635-264.57,344.635L1815.317,6392.999L1815.317,6392.999z"/>
	</g>
</g>
<g>
	<path fill="#62BA46" d="M1201.288,410.238c-21.432-7.192-27.464-31.422-27.447-32.799c0.092-8.744,2.351-16.992,6.778-24.738
		c2.005-3.512,4.653-6.545,7.068-9.76c7.483-9.949,14.868-19.976,22.297-29.967c1.537-2.072,3.023-4.158,5.196-5.684
		c1.45-1.02,2.592-2.417,3.427-4.016c1.189-2.267,0.741-4.172-1.354-5.618c-1.973-1.357-4.238-1.952-6.551-2.371
		c-1.203-0.22-2.386-0.67-3.655-0.252c-5.875,1.933-11.9,2.858-18.086,2.612c-8.629-0.342-16.118-3.184-21.539-10.23
		c-2.626-3.414-4.871-7.096-6.711-11.004c-9.582-20.333-10.385-41.106-2.936-62.225c5.177-14.677,13.822-27.222,24.167-38.698
		c1.275-1.417,2.75-2.308,4.56-2.791c4.332-1.154,8.615-0.679,12.92,0.213c5.382,1.12,10.032,3.814,14.779,6.409
		c6.364,3.477,13.021,6.271,20.391,6.755c4.692,0.307,9.157-0.55,12.157-4.456c3.679-4.797,5.502-10.261,4.155-16.422
		c-0.351-1.599-0.537-3.211-0.471-4.85c0.025-0.723,0.014-1.52,0.735-1.908c0.74-0.398,1.408,0.072,1.965,0.518
		c2.035,1.638,3.584,3.715,5.084,5.826c0.137,0.187,0.208,0.436,0.262,0.666c1.965,8.929-0.367,18.39-10.253,23.185
		c-1.456,0.705-3.107,1.071-4.454,1.93c-4.229,2.691-8.858,3.165-13.666,2.754c-7.512-0.642-14.411-3.294-21.027-6.724
		c-2.319-1.204-4.71-1.502-7.215-1.354c-7.704,0.462-13.896,4.057-18.969,9.609c-6.633,7.254-10.998,15.827-13.839,25.181
		c-1.763,5.799-2.367,11.706-1.153,17.728c1.839,9.124,10.637,17.908,19.812,19.459c9.792,1.657,19.644,1.805,29.479,0.337
		c6.701-1,13.159-2.866,19.219-5.968c7.413-3.792,13.09-9.383,17.913-16.174c7.041-9.908,14.298-19.671,20.785-29.959
		c6.936-10.997,13.795-22.003,17.297-34.774c2.203-8.024,5.896-15.529,9.874-22.849c5.752-10.581,12.663-20.281,21.555-28.496
		c2.322-2.146,5.036-3.823,7.169-6.182c4.759-5.26,9.594-10.448,14.714-15.355c3.067-2.94,6.025-6.043,9.9-8.003
		c0.399-0.2,0.702-0.642,0.97-1.028c1.946-2.808,2.923-5.976,3.506-9.308c0.413-2.368,0.023-4.817,0.521-7.126
		c1.444-6.728,6.017-10.452,12.456-12.039c5.709-1.408,11.421-0.799,17.078,0.429c3.137,0.679,6.237,1.487,9.491,1.278
		c3.856-0.253,7.297-1.419,10.032-4.296c1.121-1.184,1.458-2.782,2.326-4.096c4.3-6.508,10.592-9.37,18.129-9.621
		c2.527-0.085,4.533-0.752,6.523-2.26c6.659-5.043,13.154-10.24,18.369-16.846c80.856-34.628,124.87-21.911,156.212,0
		c0.231,0.167,0.46,0.342,0.697,0.498c6.901,4.473,13.903,8.801,20.098,14.269c0.125,0.11,0.328,0.131,0.496,0.193
		c31.08,26.394,25.652,56.131,0,93.785c-2.212,2.7-4.365,5.45-6.646,8.087c-9.319,10.765-20.263,19.321-33.582,24.646
		c-14.602,5.835-29.752,9.18-45.438,10.155c-13.083,0.816-26.02-0.181-38.804-3.087c-16.072-3.65-30.911-10.155-44.64-19.229
		c-1.05-0.695-1.304-0.406-1.506,0.634c-0.675,3.526,0.709,6.153,3.478,8.204c1.837,1.361,3.995,2.01,6.094,2.812
		c7.182,2.754,14.344,5.556,20.999,9.481c1.237,0.73,2.444,1.527,3.424,2.597c1.347,1.47,1.185,2.961-0.408,4.169
		c-0.771,0.582-1.646,0.971-2.554,1.282c-3.149,1.08-6.413,1.526-9.714,1.792c-1.832,0.147-2.043,0.479-1.444,2.243
		c0.108,0.314,0.225,0.632,0.378,0.926c2.754,5.333,6.664,9.815,10.722,14.144c1.09,1.164,1.527,2.218,1.343,3.666
		c-0.416,3.274-2.074,6.029-3.729,8.774c-1.931,3.204-0.825,7.287,2.76,8.392c5.519,1.699,11.014,2.049,15.688-2.459
		c1.479-1.428,2.771-3.072,4.499-4.223c11.603-7.76,23.605-8.948,35.918-1.83c5.037,2.911,9.721,6.444,12.684,11.605
		c9.421,16.4,14.254,34.03,13.86,53.021c-0.205,9.854-2.057,19.385-5.454,28.62c-4.897,13.313-12.606,24.854-22.175,35.231
		c-0.829,0.897-1.758,1.584-2.847,2.119c-2.105,1.045-4.291,1.854-6.579,2.396c-7.685,1.812-13.776-1.001-17.266-8.057
		c-1.251-2.524-2.251-5.09-1.933-8.071c0.268-2.517,0.053-5.08-0.954-7.476c-0.925-2.196-2.459-2.85-4.613-1.951
		c-1.562,0.656-2.9,1.588-3.886,3.055c-2.465,3.667-4.251,7.623-4.711,12.025c-0.466,4.451-0.4,8.83,3.794,11.897
		c1.018,0.748,1.78,1.87,2.59,2.875c0.477,0.589,0.898,1.255,1.191,1.946c0.536,1.265,0.086,1.9-1.288,2.003
		c-4.941,0.358-8.28-1.83-9.874-6.549c-1.737-5.138-1.38-10.407-0.704-15.646c1.051-8.184,3.334-16.085,5.907-23.901
		c1.341-4.074,4.282-4.998,7.776-2.45c1.959,1.424,3.463,3.287,4.946,5.178c1.967,2.502,5.093,2.796,7.422,0.649
		c2.27-2.086,3.834-4.666,4.489-7.688c0.992-4.568,1.323-9.201,0.644-13.848c-1.118-7.667-4.786-13.446-12.321-16.23
		c-3.645-1.35-7.451-1.656-11.312-1.625c-1.094,0.012-1.438,0.211-1.359,1.396c0.414,6.271-0.148,12.446-2.316,18.389
		c-3.344,9.156-9.727,14.656-19.492,16.044c-2.475,0.352-4.984,0.102-7.438,0.372c-9.305,1.021-18.389,3.121-27.199,6.272
		c-8.519,3.043-16.578,6.963-23.271,13.231c-7.328,6.866-10.865,15.241-10.033,25.347c0.066,0.824,0.267,1.59,0.662,2.32
		c6.706,12.408,16.804,19.055,31.209,18.273c4.562-0.247,9.078-1.096,13.188-3.102c4.254-2.08,8.186-4.766,11.872-7.768
		c2.047-1.663,3.828-3.514,5.189-5.869c1.165-2.013,3.015-3.597,5.213-4.589c1.655-0.748,2.978-0.325,3.467,1.328
		c0.83,2.817,1.236,5.575-0.579,8.37c-4.37,6.738-9.641,12.619-15.87,17.656c-9.038,6.49-33.203,22.023-65.015,0
		c-0.08-0.49-0.548-0.601-0.864-0.842c-2.256-1.718-4.306-3.656-6.107-5.854c-7.316-8.936-9.769-19.438-9.681-30.684
		c0.078-9.996,2.21-19.649,5.359-29.093c0.502-1.514,0.532-3.001,0.161-4.519c-1.255-5.131-4.927-7.812-9.654-9.264
		c-7.155-2.199-14.411-1.541-21.64-0.438c-9.857,1.505-19.393,4.301-28.822,7.488c-0.749,0.252-1.178,0.639-1.542,1.314
		c-5.832,10.797-14.011,19.409-24.189,26.229c-7.483,5.019-15.606,8.02-24.621,8.539c-10.769,0.615-20.612-2.34-29.773-7.836
		c-0.936-0.56-1.886-0.904-2.937-1.051c-5.491-0.775-10.976-0.75-16.447,0.209c-18.022,3.16-30.375,13.646-38.245,29.793
		c-2.445,5.024-3.73,10.418-4.172,15.998 M1554.035,99.928c1.423,0.104,2.847,0.204,4.271,0.304
		c-0.716,0.507-1.561,0.669-2.386,0.88c-3.155,0.817-6.23,1.819-8.917,3.767c-2.182,1.581-2.955,4.472-1.787,6.881
		c1.602,3.29,4.579,5.168,7.4,7.208c0.429,0.31,0.819,0.133,1.2-0.083c2.102-1.179,4.404-1.231,6.7-1.059
		c1.096,0.084,2.147,0.599,2.841,1.508c1.504,1.968,3.325,3.537,5.477,4.759c0.659,0.375,1.424,0.662,2.078,1.464
		c-0.509,0-0.79,0.016-1.064-0.001c-3.728-0.213-5.945,1.916-7.515,4.936c-0.896,1.728-0.809,3.695-0.521,5.497
		c0.728,4.579,4.633,8.312,9.932,6.886c4.345-1.171,6.564-5.858,5.713-10.684c-0.311-1.764-1.559-3.032-2.182-4.619l0,0
		c4.244,1.591,8.426,3.349,12.774,4.659c0.953,0.286,1.842,0.512,2.908,0.303c2.08-0.416,4.073-1.063,6-1.887
		c5.899-2.529,9.935-6.768,11.795-13.007c1.148-3.846,1.378-7.729,1.073-11.716c-0.321-4.204-1.222-8.258-2.397-12.294
		c-0.443-1.524-1.7-2.399-2.215-3.788c-0.935-2.534-0.925-5.137-0.431-7.727c0.89-4.681,2.693-9.049,4.771-13.308
		c0.316-0.655,0.668-1.296,0.507-2.046c-1.463-6.871-2.973-13.732-6.429-19.961c-1.316-2.376-2.989-4.502-5.555-5.597
		c-3.154-1.346-6.009-0.299-8.598,1.569c-2.78,2.008-5.001,4.58-6.836,7.455c-0.633,0.996-1.139,0.772-1.8,0.193
		c-4.82-4.215-10.203-7.503-16.058-10.108c-6.3-2.804-12.893-4.544-19.721-5.017c-7.458-0.516-14.842,0-22.059,2.517
		c-3.663,1.275-7.385,2.717-11.645,1.21c-4.71-1.668-9.79-1.388-14.729-0.846c-2.229,0.245-4.527,0.226-6.656,1.382
		c-3.805,2.068-7.979,3.09-12.25,3.744c-3.337,0.511-6.662,0.959-9.724,2.652c-4.808,2.657-9.749,5.073-14.604,7.647
		c-4.181,2.216-8.327,4.49-12.471,6.768c-5.569,3.061-11.127,6.139-16.675,9.233c-5.304,2.955-10.57,5.975-15.89,8.894
		c-1.624,0.892-3.098,2.14-4.987,2.459c-5.041,0.846-9.981,2.127-14.839,3.664c-6.71,2.126-13.066,5.045-19.006,8.864
		c-4.902,3.151-9.302,6.882-12.985,11.375c-7.237,8.822-10.809,19.144-11.646,30.397c-0.343,4.612-0.3,9.288,0.252,13.908
		c0.688,5.73,1.842,11.377,3.664,16.865c0.46,1.391,0.652,2.936,1.625,4.084c3.875,4.582,9.073,6.731,14.845,7.134
		c3.874,0.273,7.808,0.825,11.721,0.1c2.15-0.397,4.329-0.712,6.356-1.584c6.343-2.724,10.418-7.59,12.896-13.884
		c2.589-6.586,3.267-13.503,3.172-20.501c-0.018-1.298,0.085-2.781-0.911-3.957c-1.198-1.41-1.801-3.148-2.397-4.858
		c-1.218-3.494-1.578-7.121-1.902-10.801c-0.33-3.716,0.01-7.347,0.611-10.942c0.93-5.581,4.67-9.637,8.241-13.677
		c3.491-3.947,7.608-7.254,11.711-10.535c7.86-6.285,16.397-11.509,25.494-15.821c2.154-1.023,4.276-2.113,6.41-3.181
		c4.961-2.49,9.973-4.885,14.865-7.512c3.268-1.757,6.84-2.998,9.708-5.489c0.858-0.745,1.837-1.361,2.804-1.97
		c1.351-0.851,3.226-0.633,4.062,0.401c2.478,3.075,5.556,5.416,9.228,6.785c4.364,1.627,8.401,1.041,11.834-2.429
		c2.544-2.572,4.226-5.632,5.443-8.976c0.322-0.895,0.863-1.208,1.738-1.423c3.239-0.796,6.516-1.422,9.812-1.861
		c2.208-0.296,4.422-0.785,6.685-0.597c-1.89,0.57-3.685,1.336-5.425,2.211c-6.154,3.103-11.708,7.072-16.317,12.203
		c-2.439,2.715-5.489,4.082-8.836,5.007c-7.552,2.089-15.308,3.003-23.077,3.742c-4.927,0.469-9.89,0.575-14.728,1.767
		c-4.833,1.195-9.588,2.567-13.788,5.412c-4.61,3.123-6.539,7.954-4.414,13.328c1.939,4.901,5.185,8.824,9.36,11.884
		c4.714,3.449,9.935,6.024,15.418,8.104c8.746,3.312,17.822,4.874,27.106,5.237c3.765,0.146,7.546,0.092,11.329-0.16
		c2.761-0.187,5.527-0.41,8.257-0.742c5.004-0.605,9.977-1.527,14.85-2.855c3.209-0.875,6.593-1.341,9.427-3.248
		c2.43-1.631,4.926-3.137,7.596-4.297C1544.217,100.136,1548.907,98.532,1554.035,99.928z M1375.761,78.149
		c0.944-0.513,2.258,0.073,3.221-0.935c1.543-1.611,1.667-3.564,0.187-5.241c-2.774-3.144-6.608-4.38-10.395-5.693
		c-0.626-0.216-0.771,0.17-0.99,0.666c-0.889,1.986-0.992,4.079-0.752,6.165c0.142,1.228,0.825,2.264,1.842,3.108
		C1370.868,77.875,1373.32,77.695,1375.761,78.149z"/>
	<path fill="#62BA46" d="M1193.867,381.596c0.419-1.918,9.144,39.27,49.266-5.668c3.176-2.676,1.735-9.294-3.081-12.613
		c-0.484-0.865-1.549-1.395-2.305-2.119c-0.549-0.529-1.082-1.096-1.527-1.711c-1.436-1.967-0.991-3.377,1.378-3.631
		c6.03-0.638,11.684,0.271,16.109,4.936c3.806,4.006,4.535,8.889,3.848,14.145c-0.222,1.685-6.375,16.465-12.688,22.197
		c-2.256,2.051-20.856,21.432-43.584,13.09"/>
	<path fill="#00A551" d="M1575.27,127.569c0.623,1.588,1.87,2.855,2.182,4.619c0.849,4.826-1.368,9.513-5.713,10.684
		c-5.299,1.427-9.203-2.307-9.933-6.886c-0.289-1.802-0.376-3.768,0.521-5.497c1.57-3.019,3.786-5.149,7.513-4.936
		c0.275,0.016,0.556,0.001,1.066,0.001c-0.654-0.801-1.419-1.089-2.078-1.464c-2.154-1.222-3.973-2.791-5.477-4.759
		c-0.694-0.909-1.744-1.425-2.843-1.508c-2.296-0.172-4.596-0.119-6.698,1.059c-0.383,0.216-0.771,0.392-1.2,0.083
		c-2.821-2.041-5.798-3.919-7.4-7.208c-1.168-2.409-0.394-5.3,1.787-6.881c2.686-1.948,5.759-2.95,8.917-3.767
		c0.825-0.211,1.67-0.373,2.384-0.88c2.589-0.105,4.866-1.257,7.23-2.145c-1.417,0.033-2.805,0.197-4.179,0.431
		c-2.448,0.421-4.938,0.657-7.323,1.409c-5.124-1.394-9.814,0.21-14.402,2.201c-2.67,1.159-5.166,2.665-7.596,4.297
		c-2.834,1.907-6.218,2.373-9.427,3.248c-4.873,1.327-9.847,2.249-14.852,2.855c-2.728,0.332-5.494,0.555-8.255,0.742
		c-3.785,0.253-7.565,0.306-11.33,0.16c-9.284-0.362-18.359-1.925-27.105-5.237c-5.483-2.081-10.704-4.655-15.418-8.104
		c-4.176-3.06-7.421-6.983-9.36-11.884c-2.125-5.374-0.198-10.205,4.414-13.328c4.2-2.845,8.955-4.217,13.788-5.412
		c4.839-1.192,9.801-1.298,14.726-1.767c7.77-0.739,15.527-1.654,23.079-3.742c3.347-0.924,6.397-2.292,8.835-5.007
		c4.61-5.131,10.164-9.1,16.318-12.203c1.74-0.876,3.535-1.641,5.425-2.211c-2.263-0.188-4.477,0.301-6.685,0.597
		c-3.296,0.439-6.573,1.065-9.812,1.861c-0.875,0.215-1.415,0.528-1.74,1.423c-1.214,3.344-2.897,6.404-5.441,8.976
		c-3.434,3.471-7.47,4.056-11.834,2.429c-3.672-1.369-6.749-3.71-9.229-6.785c-0.837-1.034-2.712-1.253-4.061-0.401
		c-0.967,0.609-1.947,1.225-2.804,1.97c-2.869,2.491-6.44,3.732-9.708,5.489c-4.892,2.627-9.904,5.023-14.865,7.512
		c-2.134,1.068-4.256,2.158-6.41,3.181c-9.097,4.312-17.634,9.536-25.494,15.821c-4.103,3.282-8.22,6.589-11.711,10.535
		c-3.572,4.039-7.311,8.095-8.242,13.677c-0.6,3.595-0.94,7.226-0.61,10.942c0.322,3.68,0.684,7.307,1.901,10.801
		c0.597,1.71,1.2,3.448,2.398,4.858c0.996,1.177,0.892,2.659,0.911,3.957c0.096,6.997-0.583,13.915-3.172,20.501
		c-2.479,6.294-6.555,11.16-12.896,13.884c-2.028,0.872-4.205,1.188-6.356,1.584c-3.913,0.725-7.846,0.173-11.721-0.1
		c-5.772-0.403-10.97-2.552-14.845-7.134c-0.973-1.148-1.165-2.693-1.625-4.084c-1.822-5.488-2.976-11.135-3.664-16.865
		c-0.551-4.619-0.595-9.296-0.252-13.908c0.838-11.252,4.409-21.574,11.646-30.397c3.684-4.493,8.083-8.224,12.986-11.375
		c5.941-3.82,12.297-6.738,19.005-8.864c4.859-1.538,9.797-2.819,14.838-3.664c1.89-0.319,3.365-1.567,4.989-2.459
		c5.32-2.919,10.586-5.939,15.889-8.894c5.549-3.094,11.107-6.172,16.676-9.233c4.144-2.278,8.29-4.552,12.471-6.768
		c4.854-2.574,9.796-4.99,14.602-7.647c3.064-1.694,6.389-2.141,9.726-2.652c4.271-0.654,8.445-1.676,12.25-3.744
		c2.129-1.156,4.427-1.137,6.656-1.382c4.938-0.542,10.018-0.822,14.729,0.846c4.26,1.508,7.982,0.066,11.645-1.21
		c7.216-2.517,14.601-3.033,22.059-2.517c6.827,0.473,13.421,2.213,19.721,5.017c5.853,2.605,11.238,5.892,16.056,10.108
		c0.662,0.579,1.166,0.804,1.802-0.193c1.835-2.875,4.056-5.447,6.836-7.455c2.589-1.868,5.444-2.914,8.598-1.569
		c2.566,1.095,4.239,3.222,5.555,5.597c3.456,6.229,4.965,13.09,6.429,19.961c0.159,0.75-0.191,1.39-0.509,2.046
		c-2.076,4.259-3.879,8.628-4.771,13.308c-0.494,2.591-0.504,5.193,0.431,7.727c0.515,1.389,1.772,2.264,2.213,3.788
		c1.177,4.036,2.078,8.09,2.399,12.294c0.304,3.987,0.074,7.87-1.073,11.716c-1.859,6.239-5.896,10.478-11.795,13.007
		c-1.927,0.824-3.92,1.471-6,1.887c-1.068,0.209-1.955-0.017-2.908-0.303c-4.348-1.31-8.53-3.068-12.774-4.659
		c-0.104-0.113-0.165-0.373-0.374-0.106C1575.024,127.5,1575.147,127.535,1575.27,127.569z M1556.031,48.703
		c-0.365-0.286-0.716-0.602-1.29-0.439c0.331,0.439,0.771,0.489,1.223,0.516c0.54,0.295,1.066,0.63,1.625,0.881
		c4.827,2.176,9.194,5.038,13.207,8.501c6.229,5.376,10.888,11.891,14.35,19.301c1.261,2.705,2.245,5.452,1.946,8.553
		c-0.293,3.067-1.57,5.603-3.813,7.609c-4.521,4.048-10.186,5.158-15.938,6.069c-2.128,0.339-4.334-0.07-6.76,0.782
		c4.098,0.116,7.825-0.06,11.513-0.566c3.692-0.506,7.335-1.329,10.556-3.367c3.722-2.356,5.944-5.569,5.88-10.152
		c-0.024-1.654-0.581-3.181-0.838-4.772c-1.306-8.015-4.99-14.815-10.644-20.513c-4.204-4.243-9.175-7.504-14.613-9.976
		C1560.362,50.188,1558.328,49.077,1556.031,48.703z M1538.128,44.378c-4.192-0.665-8.387-1.457-12.614-0.312
		C1529.717,44.199,1533.928,43.973,1538.128,44.378z"/>
	<path fill="#00A551" d="M1378.983,77.213c1.543-1.611,1.667-3.564,0.187-5.241c-2.774-3.144-6.608-4.379-10.395-5.693
		c-0.626-0.216-0.769,0.17-0.99,0.666c-0.889,1.986-0.992,4.079-0.752,6.165c0.142,1.228,0.825,2.264,1.842,3.108
		c1.994,1.657,4.446,1.477,6.889,1.93C1376.705,77.636,1378.02,78.222,1378.983,77.213z"/>
	<path fill="#4F504F" d="M1558.303,100.231c2.591-0.105,4.866-1.257,7.23-2.145c-1.417,0.033-2.804,0.197-4.178,0.431
		c-2.449,0.421-4.938,0.657-7.324,1.409C1555.455,100.029,1556.879,100.131,1558.303,100.231z"/>
	<path fill="#4F504F" d="M1555.964,48.78c0.54,0.295,1.066,0.63,1.625,0.881c4.827,2.176,9.194,5.038,13.207,8.501
		c6.229,5.376,10.888,11.891,14.35,19.301c1.261,2.705,2.245,5.452,1.946,8.553c-0.293,3.067-1.57,5.603-3.813,7.609
		c-4.521,4.048-10.186,5.158-15.938,6.069c-2.128,0.339-4.334-0.07-6.76,0.782c4.098,0.116,7.825-0.06,11.513-0.566
		c3.692-0.506,7.335-1.329,10.556-3.367c3.722-2.356,5.944-5.569,5.88-10.152c-0.024-1.654-0.581-3.181-0.838-4.772
		c-1.306-8.015-4.99-14.815-10.644-20.513c-4.204-4.243-9.175-7.504-14.613-9.976c-2.071-0.941-4.105-2.053-6.4-2.432
		L1555.964,48.78z"/>
	<path fill="#4F504F" d="M1525.515,44.066c4.202,0.133,8.413-0.094,12.614,0.312C1533.936,43.713,1529.741,42.921,1525.515,44.066z"
		/>
	<path fill="#4F504F" d="M1556.033,48.7c-0.365-0.285-0.716-0.601-1.29-0.438c0.331,0.439,0.772,0.489,1.223,0.516
		C1555.966,48.778,1556.033,48.698,1556.033,48.7z"/>
	<path d="M1575.272,127.57c-0.104-0.113-0.165-0.373-0.374-0.106C1575.024,127.501,1575.147,127.535,1575.272,127.57
		L1575.272,127.57z"/>
</g>
</svg>
