<?xml version="1.0" encoding="utf-8"?>
<!-- Generator: Adobe Illustrator 16.0.0, SVG Export Plug-In . SVG Version: 6.00 Build 0)  -->
<!DOCTYPE svg PUBLIC "-//W3C//DTD SVG 1.1//EN" "http://www.w3.org/Graphics/SVG/1.1/DTD/svg11.dtd">
<svg version="1.1" id="Layer_1" xmlns="http://www.w3.org/2000/svg" xmlns:xlink="http://www.w3.org/1999/xlink" x="0px" y="0px"
	 width="1692px" height="517px" viewBox="0 0 1692 517" enable-background="new 0 0 1692 517" xml:space="preserve">
<g>
	<g transform="translate(-159 -5841)">
		<path fill="#D6DE23" d="M137.59,6393c62.21-79.012,157.84-232.311,251.61-305.49c347.561-270.678,504.052,31.945,1066.28-204.393
			c356.452-149.838,405.562,239.187,393.783,508.734L137.59,6393z"/>
		<path opacity="0.05" fill="#FFFFFF" enable-background="new    " d="M402.485,6392.999
			c-41.397-185.711,96.459-75.542,228.027-171.832c255.548-186.624,370.256-9.856,783.643-172.8
			c413.387-162.944,264.57,344.636,264.57,344.636L402.485,6392.999z"/>
		
			<linearGradient id="SVGID_1_" gradientUnits="userSpaceOnUse" x1="2121.7405" y1="6519.3525" x2="2121.7454" y2="6518.543" gradientTransform="matrix(1309.8024 0 0 -542.2887 -2777898 3541256.25)">
			<stop  offset="0" style="stop-color:#6FE6C7"/>
			<stop  offset="1" style="stop-color:#E0E31C"/>
		</linearGradient>
		<path opacity="0.3" fill="url(#SVGID_1_)" enable-background="new    " d="M1815.317,6392.999
			c41.4-185.711-96.459-75.543-228.027-171.832c-255.548-186.623-370.257-9.856-783.643-172.804s-264.57,344.635-264.57,344.635
			L1815.317,6392.999L1815.317,6392.999z"/>
	</g>
</g>
<g>
	<path fill="#62BA46" d="M628.826,381.596c-0.442-5.58-1.727-10.974-4.172-15.998c-7.87-16.147-20.223-26.633-38.245-29.793
		c-5.472-0.959-10.956-0.984-16.448-0.209c-1.05,0.146-2.001,0.491-2.936,1.051c-9.161,5.496-19.005,8.451-29.774,7.836
		c-9.014-0.52-17.137-3.521-24.621-8.539c-10.178-6.82-18.357-15.432-24.189-26.229c-0.364-0.676-0.793-1.062-1.542-1.314
		c-9.43-3.188-18.965-5.984-28.822-7.489c-7.229-1.104-14.485-1.761-21.64,0.437c-4.728,1.453-8.399,4.133-9.654,9.264
		c-0.371,1.518-0.341,3.005,0.161,4.519c3.149,9.443,5.281,19.097,5.359,29.093c0.088,11.246-2.364,21.748-9.681,30.683
		c-1.801,2.198-3.851,4.136-6.107,5.853c-0.316,0.242-0.784,0.352-0.864,0.842c-31.812,22.024-55.977,6.491-65.015,0
		c-6.229-5.037-11.5-10.918-15.87-17.656c-1.815-2.795-1.409-5.553-0.579-8.37c0.489-1.653,1.811-2.076,3.467-1.328
		c2.198,0.992,4.048,2.576,5.213,4.589c1.361,2.355,3.142,4.206,5.189,5.869c3.687,3.002,7.618,5.688,11.872,7.768
		c4.109,2.006,8.625,2.854,13.188,3.101c14.405,0.782,24.503-5.865,31.209-18.273c0.395-0.731,0.595-1.497,0.662-2.321
		c0.832-10.105-2.705-18.48-10.034-25.346c-6.693-6.269-14.752-10.189-23.271-13.232c-8.811-3.151-17.895-5.252-27.199-6.272
		c-2.453-0.271-4.963-0.021-7.438-0.372c-9.765-1.388-16.148-6.888-19.492-16.044c-2.168-5.942-2.73-12.118-2.316-18.389
		c0.078-1.185-0.266-1.384-1.36-1.395c-3.86-0.032-7.667,0.275-11.311,1.624c-7.536,2.785-11.204,8.564-12.322,16.231
		c-0.679,4.647-0.348,9.28,0.644,13.848c0.655,3.021,2.22,5.601,4.489,7.688c2.329,2.146,5.455,1.852,7.422-0.65
		c1.484-1.891,2.987-3.754,4.946-5.178c3.495-2.547,6.436-1.624,7.777,2.451c2.573,7.816,4.856,15.717,5.907,23.901
		c0.676,5.239,1.033,10.509-0.704,15.646c-1.594,4.719-4.933,6.908-9.874,6.549c-1.374-0.102-1.824-0.738-1.288-2.003
		c0.293-0.692,0.715-1.357,1.191-1.946c0.81-1.005,1.572-2.127,2.59-2.875c4.194-3.068,4.26-7.447,3.794-11.898
		c-0.46-4.402-2.246-8.358-4.711-12.025c-0.985-1.467-2.324-2.398-3.886-3.055c-2.154-0.898-3.688-0.245-4.613,1.951
		c-1.007,2.396-1.222,4.959-0.954,7.476c0.318,2.981-0.682,5.547-1.933,8.071c-3.489,7.056-9.581,9.869-17.266,8.057
		c-2.288-0.542-4.473-1.352-6.579-2.396c-1.089-0.535-2.017-1.222-2.846-2.119c-9.569-10.377-17.278-21.918-22.175-35.232
		c-3.398-9.236-5.249-18.766-5.454-28.62c-0.394-18.991,4.439-36.621,13.86-53.021c2.963-5.161,7.647-8.694,12.684-11.605
		c12.312-7.118,24.315-5.93,35.918,1.83c1.727,1.151,3.02,2.795,4.499,4.223c4.675,4.508,10.17,4.158,15.688,2.459
		c3.585-1.105,4.691-5.188,2.76-8.392c-1.654-2.745-3.312-5.5-3.728-8.774c-0.185-1.448,0.253-2.502,1.342-3.666
		c4.058-4.329,7.968-8.811,10.722-14.144c0.153-0.294,0.27-0.612,0.378-0.926c0.599-1.764,0.388-2.096-1.444-2.243
		c-3.301-0.266-6.565-0.712-9.714-1.792c-0.908-0.311-1.782-0.7-2.554-1.282c-1.593-1.208-1.755-2.699-0.408-4.169
		c0.979-1.07,2.186-1.867,3.424-2.597c6.655-3.925,13.817-6.727,20.999-9.481c2.098-0.802,4.257-1.451,6.094-2.812
		c2.768-2.051,4.152-4.678,3.477-8.204c-0.202-1.04-0.456-1.329-1.506-0.634c-13.728,9.074-28.567,15.579-44.639,19.229
		c-12.785,2.906-25.721,3.903-38.804,3.087c-15.686-0.975-30.836-4.32-45.438-10.155c-13.319-5.325-24.263-13.881-33.582-24.646
		c-2.281-2.637-4.434-5.387-6.646-8.087c-25.653-37.654-31.08-67.391,0-93.785c0.168-0.062,0.371-0.083,0.496-0.193
		c6.194-5.468,13.196-9.796,20.097-14.269c0.238-0.156,0.466-0.331,0.698-0.498c31.341-21.911,75.355-34.628,156.212,0
		c5.215,6.606,11.71,11.803,18.369,16.846c1.99,1.508,3.996,2.175,6.523,2.26c7.537,0.251,13.829,3.113,18.129,9.621
		c0.868,1.314,1.205,2.912,2.326,4.096c2.736,2.877,6.176,4.043,10.033,4.296c3.254,0.209,6.354-0.599,9.491-1.278
		c5.657-1.228,11.369-1.837,17.078-0.429c6.439,1.587,11.012,5.311,12.456,12.039c0.498,2.309,0.108,4.758,0.522,7.126
		c0.583,3.332,1.559,6.5,3.505,9.308c0.268,0.386,0.571,0.828,0.97,1.028c3.875,1.96,6.833,5.063,9.901,8.003
		c5.12,4.907,9.955,10.095,14.713,15.355c2.133,2.359,4.847,4.036,7.169,6.182c8.892,8.215,15.803,17.915,21.555,28.496
		c3.979,7.32,7.671,14.825,9.874,22.849c3.502,12.771,10.361,23.777,17.297,34.774c6.487,10.288,13.744,20.051,20.785,29.959
		c4.823,6.791,10.5,12.382,17.913,16.174c6.06,3.102,12.518,4.968,19.219,5.968c9.836,1.467,19.687,1.32,29.479-0.337
		c9.175-1.551,17.973-10.335,19.812-19.459c1.214-6.022,0.609-11.929-1.153-17.728c-2.841-9.354-7.206-17.927-13.839-25.181
		c-5.073-5.552-11.265-9.147-18.969-9.609c-2.505-0.148-4.896,0.15-7.215,1.354c-6.616,3.43-13.516,6.082-21.027,6.724
		c-4.808,0.411-9.438-0.063-13.666-2.754c-1.347-0.859-2.998-1.225-4.454-1.93c-9.886-4.795-12.218-14.256-10.253-23.185
		c0.053-0.23,0.125-0.479,0.261-0.666c1.5-2.111,3.049-4.188,5.084-5.826c0.557-0.446,1.225-0.916,1.965-0.518
		c0.722,0.388,0.71,1.185,0.736,1.908c0.066,1.639-0.121,3.251-0.471,4.85c-1.347,6.161,0.476,11.625,4.155,16.422
		c3,3.906,7.465,4.763,12.157,4.456c7.371-0.484,14.027-3.278,20.391-6.755c4.747-2.595,9.397-5.289,14.779-6.409
		c4.305-0.892,8.588-1.367,12.92-0.213c1.81,0.483,3.284,1.374,4.56,2.791c10.345,11.476,18.99,24.021,24.167,38.698
		c7.449,21.119,6.646,41.892-2.936,62.225c-1.84,3.909-4.085,7.59-6.711,11.004c-5.421,7.047-12.91,9.889-21.539,10.231
		c-6.185,0.246-12.211-0.68-18.086-2.613c-1.269-0.418-2.452,0.033-3.655,0.252c-2.312,0.419-4.578,1.014-6.551,2.371
		c-2.095,1.447-2.544,3.352-1.354,5.619c0.835,1.598,1.976,2.996,3.427,4.015c2.172,1.526,3.659,3.612,5.196,5.683
		c7.429,9.992,14.813,20.018,22.297,29.967c2.415,3.215,5.063,6.248,7.068,9.76c4.428,7.746,6.687,15.994,6.778,24.738
		c0.017,1.377-6.015,25.607-27.447,32.799 M283,102.127c2.67,1.16,5.166,2.666,7.596,4.297c2.834,1.907,6.218,2.373,9.427,3.248
		c4.873,1.328,9.846,2.25,14.85,2.855c2.729,0.332,5.496,0.555,8.256,0.742c3.784,0.252,7.565,0.306,11.329,0.16
		c9.285-0.363,18.361-1.925,27.107-5.237c5.483-2.08,10.704-4.655,15.418-8.104c4.176-3.06,7.421-6.983,9.36-11.884
		c2.125-5.374,0.197-10.205-4.414-13.328c-4.2-2.845-8.955-4.217-13.788-5.412c-4.838-1.192-9.801-1.298-14.727-1.767
		c-7.77-0.739-15.526-1.653-23.078-3.742c-3.346-0.925-6.396-2.292-8.836-5.007c-4.609-5.131-10.163-9.1-16.317-12.203
		c-1.74-0.875-3.535-1.641-5.425-2.211c2.263-0.188,4.477,0.301,6.685,0.597c3.297,0.439,6.573,1.065,9.812,1.861
		c0.875,0.215,1.416,0.528,1.739,1.423c1.217,3.344,2.899,6.404,5.443,8.976c3.433,3.47,7.47,4.056,11.834,2.429
		c3.672-1.369,6.75-3.71,9.227-6.785c0.836-1.034,2.711-1.252,4.062-0.401c0.967,0.609,1.945,1.225,2.804,1.97
		c2.868,2.491,6.44,3.732,9.708,5.489c4.892,2.627,9.904,5.022,14.865,7.512c2.134,1.068,4.256,2.158,6.41,3.181
		c9.097,4.312,17.634,9.536,25.494,15.821c4.103,3.281,8.22,6.588,11.711,10.535c3.571,4.04,7.312,8.096,8.241,13.677
		c0.602,3.595,0.942,7.226,0.612,10.942c-0.324,3.68-0.685,7.307-1.903,10.801c-0.596,1.71-1.199,3.448-2.397,4.858
		c-0.996,1.176-0.894,2.659-0.911,3.957c-0.095,6.998,0.583,13.915,3.172,20.501c2.478,6.294,6.553,11.16,12.896,13.884
		c2.028,0.872,4.206,1.187,6.357,1.584c3.913,0.725,7.846,0.173,11.72-0.1c5.772-0.403,10.97-2.552,14.845-7.134
		c0.973-1.148,1.165-2.693,1.625-4.084c1.822-5.488,2.977-11.135,3.664-16.865c0.552-4.62,0.595-9.296,0.252-13.908
		c-0.838-11.253-4.409-21.575-11.646-30.397c-3.684-4.493-8.083-8.224-12.986-11.375c-5.939-3.819-12.296-6.738-19.006-8.864
		c-4.857-1.537-9.797-2.818-14.838-3.664c-1.89-0.319-3.364-1.567-4.988-2.459c-5.319-2.919-10.586-5.939-15.889-8.894
		c-5.548-3.094-11.106-6.172-16.675-9.233c-4.144-2.278-8.29-4.552-12.471-6.768c-4.854-2.574-9.796-4.99-14.603-7.647
		c-3.062-1.693-6.387-2.141-9.724-2.652c-4.272-0.654-8.445-1.676-12.25-3.744c-2.129-1.156-4.427-1.137-6.656-1.382
		c-4.939-0.542-10.019-0.822-14.729,0.846c-4.26,1.507-7.981,0.065-11.644-1.21c-7.217-2.517-14.601-3.033-22.059-2.517
		c-6.828,0.473-13.421,2.213-19.721,5.017c-5.854,2.605-11.237,5.893-16.057,10.108c-0.662,0.579-1.167,0.803-1.8-0.193
		c-1.835-2.875-4.056-5.447-6.836-7.455c-2.589-1.868-5.444-2.915-8.598-1.569c-2.565,1.095-4.238,3.221-5.555,5.597
		c-3.456,6.229-4.965,13.09-6.428,19.961c-0.161,0.75,0.19,1.391,0.507,2.046c2.078,4.259,3.881,8.627,4.771,13.308
		c0.494,2.59,0.504,5.193-0.431,7.727c-0.514,1.389-1.771,2.264-2.214,3.788c-1.176,4.036-2.077,8.09-2.398,12.294
		c-0.305,3.987-0.075,7.87,1.073,11.716c1.861,6.239,5.896,10.478,11.795,13.007c1.927,0.824,3.92,1.471,6,1.887
		c1.067,0.209,1.955-0.017,2.908-0.303c4.349-1.31,8.531-3.068,12.775-4.659l0,0c-0.623,1.587-1.871,2.855-2.182,4.619
		c-0.851,4.826,1.368,9.513,5.713,10.684c5.299,1.427,9.204-2.307,9.932-6.886c0.288-1.802,0.376-3.769-0.521-5.497
		c-1.569-3.02-3.787-5.149-7.514-4.936c-0.275,0.017-0.556,0.001-1.065,0.001c0.654-0.802,1.419-1.089,2.078-1.464
		c2.152-1.222,3.973-2.791,5.477-4.759c0.693-0.909,1.745-1.424,2.841-1.508c2.296-0.172,4.598-0.12,6.7,1.059
		c0.381,0.216,0.771,0.393,1.2,0.083c2.821-2.04,5.799-3.918,7.4-7.208c1.168-2.409,0.395-5.3-1.787-6.881
		c-2.686-1.948-5.761-2.95-8.917-3.767c-0.825-0.211-1.67-0.373-2.385-0.88c1.424-0.1,2.848-0.201,4.271-0.304
		C273.721,98.532,278.411,100.136,283,102.127z M453.755,76.219c1.017-0.844,1.701-1.88,1.842-3.108
		c0.24-2.086,0.137-4.179-0.752-6.165c-0.22-0.496-0.364-0.882-0.99-0.666c-3.786,1.313-7.62,2.549-10.395,5.693
		c-1.48,1.677-1.356,3.63,0.187,5.241c0.963,1.008,2.276,0.422,3.221,0.935C449.309,77.695,451.76,77.875,453.755,76.219z"/>
	<path fill="#62BA46" d="M621.345,410.221c-22.727,8.342-41.328-11.039-43.584-13.09c-6.312-5.732-12.466-20.513-12.687-22.197
		c-0.688-5.256,0.042-10.139,3.847-14.145c4.426-4.665,10.08-5.573,16.11-4.936c2.369,0.254,2.813,1.664,1.378,3.631
		c-0.446,0.615-0.979,1.182-1.528,1.711c-0.755,0.725-1.82,1.254-2.304,2.119c-4.817,3.32-6.257,9.938-3.081,12.613
		c40.122,44.938,48.846,3.75,49.265,5.668"/>
	<path fill="#00A551" d="M247.731,127.464c-0.209-0.267-0.271-0.007-0.374,0.106c-4.244,1.591-8.427,3.349-12.775,4.659
		c-0.953,0.286-1.84,0.512-2.908,0.303c-2.08-0.416-4.073-1.063-6-1.887c-5.899-2.529-9.935-6.768-11.795-13.007
		c-1.147-3.846-1.377-7.729-1.073-11.716c0.321-4.204,1.223-8.258,2.399-12.294c0.441-1.524,1.699-2.399,2.213-3.788
		c0.935-2.534,0.925-5.136,0.431-7.727c-0.892-4.68-2.694-9.049-4.771-13.308c-0.317-0.656-0.668-1.296-0.508-2.046
		c1.463-6.871,2.972-13.732,6.428-19.961c1.316-2.375,2.989-4.502,5.555-5.597c3.153-1.345,6.009-0.299,8.598,1.569
		c2.78,2.008,5.001,4.58,6.836,7.455c0.635,0.997,1.139,0.772,1.801,0.193c4.818-4.216,10.203-7.503,16.056-10.108
		c6.3-2.804,12.894-4.544,19.721-5.017c7.458-0.516,14.842,0,22.059,2.517c3.662,1.276,7.384,2.718,11.644,1.21
		c4.711-1.668,9.791-1.388,14.729-0.846c2.229,0.245,4.527,0.226,6.656,1.382c3.805,2.068,7.979,3.09,12.25,3.744
		c3.337,0.511,6.661,0.958,9.725,2.652c4.806,2.657,9.748,5.073,14.602,7.647c4.181,2.216,8.327,4.49,12.471,6.768
		c5.568,3.061,11.127,6.139,16.675,9.233c5.303,2.955,10.569,5.975,15.889,8.894c1.624,0.892,3.1,2.14,4.989,2.459
		c5.041,0.845,9.979,2.126,14.838,3.664c6.708,2.126,13.064,5.044,19.005,8.864c4.903,3.151,9.303,6.882,12.986,11.375
		c7.237,8.823,10.808,19.145,11.646,30.397c0.343,4.612,0.299,9.289-0.252,13.908c-0.688,5.73-1.842,11.377-3.664,16.865
		c-0.46,1.391-0.652,2.936-1.625,4.084c-3.875,4.582-9.072,6.731-14.845,7.134c-3.875,0.273-7.807,0.825-11.72,0.1
		c-2.152-0.397-4.329-0.712-6.357-1.584c-6.342-2.724-10.418-7.59-12.896-13.884c-2.589-6.586-3.268-13.504-3.172-20.501
		c0.019-1.298-0.085-2.78,0.911-3.957c1.198-1.41,1.802-3.148,2.398-4.858c1.218-3.494,1.579-7.121,1.902-10.801
		c0.33-3.716-0.011-7.347-0.611-10.942c-0.931-5.582-4.67-9.638-8.242-13.677c-3.491-3.946-7.608-7.253-11.711-10.535
		c-7.86-6.285-16.397-11.509-25.494-15.821c-2.154-1.023-4.276-2.113-6.41-3.181c-4.961-2.489-9.974-4.885-14.865-7.512
		c-3.268-1.757-6.839-2.998-9.708-5.489c-0.857-0.745-1.837-1.361-2.804-1.97c-1.349-0.852-3.224-0.633-4.061,0.401
		c-2.479,3.075-5.556,5.416-9.228,6.785c-4.364,1.627-8.401,1.042-11.834-2.429c-2.544-2.572-4.228-5.632-5.442-8.976
		c-0.325-0.895-0.865-1.208-1.74-1.423c-3.239-0.796-6.516-1.422-9.812-1.861c-2.208-0.296-4.422-0.785-6.685-0.597
		c1.89,0.57,3.685,1.335,5.425,2.211c6.154,3.103,11.708,7.072,16.318,12.203c2.438,2.715,5.489,4.083,8.835,5.007
		c7.552,2.088,15.31,3.003,23.079,3.742c4.925,0.469,9.887,0.575,14.726,1.767c4.833,1.195,9.588,2.567,13.788,5.412
		c4.612,3.123,6.539,7.954,4.414,13.328c-1.939,4.901-5.185,8.824-9.36,11.884c-4.714,3.449-9.935,6.023-15.418,8.104
		c-8.746,3.312-17.822,4.875-27.106,5.237c-3.764,0.146-7.545,0.093-11.33-0.16c-2.761-0.187-5.527-0.41-8.255-0.742
		c-5.005-0.606-9.978-1.528-14.851-2.855c-3.209-0.875-6.593-1.341-9.427-3.248c-2.43-1.632-4.926-3.138-7.596-4.297
		c-4.588-1.991-9.278-3.595-14.402-2.201c-2.386-0.752-4.875-0.988-7.324-1.409c-1.374-0.234-2.761-0.398-4.178-0.431
		c2.364,0.888,4.641,2.04,7.23,2.145c0.714,0.507,1.559,0.669,2.384,0.88c3.158,0.817,6.231,1.819,8.917,3.767
		c2.181,1.581,2.955,4.472,1.787,6.881c-1.602,3.289-4.579,5.167-7.4,7.208c-0.429,0.309-0.818,0.133-1.2-0.083
		c-2.103-1.178-4.403-1.231-6.699-1.059c-1.098,0.083-2.148,0.599-2.842,1.508c-1.504,1.968-3.323,3.537-5.477,4.759
		c-0.659,0.375-1.424,0.663-2.078,1.464c0.511,0,0.791,0.015,1.066-0.001c3.727-0.213,5.943,1.917,7.513,4.936
		c0.897,1.729,0.811,3.695,0.521,5.497c-0.729,4.579-4.633,8.313-9.932,6.886c-4.345-1.171-6.562-5.858-5.713-10.684
		c0.311-1.764,1.559-3.031,2.182-4.619C247.482,127.535,247.605,127.5,247.731,127.464z M260.196,51.13
		c-5.439,2.472-10.41,5.733-14.614,9.976c-5.653,5.698-9.338,12.498-10.643,20.513c-0.257,1.591-0.814,3.118-0.838,4.772
		c-0.065,4.583,2.158,7.796,5.88,10.152c3.22,2.038,6.863,2.861,10.555,3.367c3.688,0.506,7.415,0.682,11.513,0.566
		c-2.426-0.852-4.632-0.443-6.76-0.782c-5.753-0.911-11.417-2.021-15.938-6.069c-2.243-2.006-3.521-4.542-3.814-7.609
		c-0.298-3.101,0.686-5.848,1.947-8.553c3.462-7.41,8.121-13.925,14.349-19.301c4.013-3.463,8.38-6.325,13.207-8.501
		c0.559-0.251,1.085-0.586,1.625-0.881c0.451-0.027,0.892-0.077,1.223-0.516c-0.574-0.163-0.925,0.153-1.29,0.439
		C264.3,49.077,262.267,50.188,260.196,51.13z M297.115,44.066c-4.228-1.145-8.422-0.353-12.615,0.312
		C288.7,43.973,292.911,44.199,297.115,44.066z"/>
	<path fill="#00A551" d="M446.866,78.148c2.442-0.453,4.894-0.273,6.888-1.93c1.017-0.844,1.701-1.88,1.842-3.108
		c0.24-2.086,0.137-4.179-0.752-6.165c-0.221-0.496-0.364-0.882-0.99-0.666c-3.786,1.314-7.62,2.549-10.395,5.693
		c-1.48,1.677-1.356,3.63,0.187,5.241C444.609,78.222,445.923,77.636,446.866,78.148z"/>
	<path fill="#4F504F" d="M268.597,99.926c-2.386-0.752-4.875-0.988-7.324-1.409c-1.374-0.234-2.761-0.398-4.178-0.431
		c2.364,0.888,4.64,2.04,7.23,2.145C265.749,100.131,267.173,100.029,268.597,99.926z"/>
	<path fill="#4F504F" d="M266.595,48.698c-2.295,0.379-4.329,1.491-6.4,2.432c-5.439,2.472-10.41,5.733-14.614,9.976
		c-5.653,5.698-9.338,12.498-10.643,20.513c-0.257,1.591-0.814,3.118-0.838,4.772c-0.065,4.583,2.158,7.796,5.88,10.152
		c3.22,2.038,6.863,2.861,10.555,3.367c3.688,0.506,7.415,0.682,11.513,0.566c-2.426-0.852-4.632-0.443-6.76-0.782
		c-5.753-0.911-11.417-2.021-15.938-6.069c-2.243-2.006-3.521-4.542-3.814-7.609c-0.298-3.101,0.686-5.848,1.947-8.553
		c3.462-7.41,8.121-13.925,14.349-19.301c4.013-3.463,8.38-6.325,13.207-8.501c0.559-0.251,1.085-0.586,1.625-0.881L266.595,48.698z
		"/>
	<path fill="#4F504F" d="M284.499,44.378c4.201-0.406,8.412-0.179,12.615-0.312C292.887,42.921,288.693,43.713,284.499,44.378z"/>
	<path fill="#4F504F" d="M266.662,48.778c0.451-0.027,0.892-0.077,1.223-0.516c-0.574-0.163-0.925,0.153-1.29,0.438
		C266.595,48.698,266.662,48.778,266.662,48.778z"/>
	<path d="M247.357,127.57c0.125-0.035,0.248-0.069,0.374-0.106C247.522,127.197,247.46,127.457,247.357,127.57L247.357,127.57z"/>
</g>
</svg>
