<?xml version="1.0" encoding="utf-8"?>
<!-- Generator: Adobe Illustrator 16.0.0, SVG Export Plug-In . SVG Version: 6.00 Build 0)  -->
<!DOCTYPE svg PUBLIC "-//W3C//DTD SVG 1.1//EN" "http://www.w3.org/Graphics/SVG/1.1/DTD/svg11.dtd">
<svg version="1.1" id="Layer_1" xmlns="http://www.w3.org/2000/svg" xmlns:xlink="http://www.w3.org/1999/xlink" x="0px" y="0px"
	 width="136px" height="28px" viewBox="0 0 136 28" enable-background="new 0 0 136 28" xml:space="preserve">
<path fill-rule="evenodd" clip-rule="evenodd" fill="#060606" d="M45.779,5.088c0-1.282,0.045-2.454-0.017-3.616
	c-0.037-0.785,0.149-1.092,1.018-1.094c0.886-0.003,1.151,0.212,1.142,1.129c-0.052,4.581-0.018,9.163-0.036,13.743
	c0,0.363,0.265,1.029-0.46,0.973c-0.543-0.047-1.39,0.521-1.609-0.373c-0.197-0.818-0.468-0.33-0.756-0.18
	c-3.783,1.947-6.626,0.525-7.336-3.653c-0.225-1.323-0.143-2.63,0.285-3.891C39.091,4.939,41.744,3.88,45.779,5.088z M45.779,7.066
	c-1.729,2.169-3.216,4.023-4.687,5.89c-0.212,0.277-0.671,0.574-0.253,0.984c0.821,0.806,1.87,0.851,2.855,0.512
	c0.841-0.292,2.036-0.369,2.072-1.657C45.817,11.012,45.779,9.227,45.779,7.066z"/>
<path fill-rule="evenodd" clip-rule="evenodd" fill="#060606" d="M10.929,4.271c-1.727-1.228-3.47-1.875-5.475-1.562
	C4.184,2.906,3.176,3.479,3.08,4.873C2.986,6.211,3.862,6.889,5.073,7.192c1.085,0.277,2.178,0.525,3.26,0.816
	c2.136,0.571,3.21,1.696,3.392,3.518c0.176,1.784-0.926,3.658-2.779,4.412c-2.646,1.074-5.309,0.701-7.815-0.441
	c-1.109-0.502-0.24-1.745-0.561-2.847c1.521,1.003,2.897,1.764,4.528,1.981c0.906,0.117,1.762,0,2.59-0.26
	c1.013-0.314,1.658-1.051,1.68-2.156c0.021-1.118-0.594-1.847-1.642-2.15C6.607,9.741,5.459,9.505,4.329,9.21
	c-2.428-0.624-3.685-2.06-3.64-4.124C0.73,3.094,2.285,1.458,4.585,0.948c1.927-0.433,3.789-0.113,5.619,0.471
	C11.203,1.738,11.226,1.923,10.929,4.271z"/>
<path fill-rule="evenodd" clip-rule="evenodd" fill="#060606" d="M90.795,7.034c-0.435-1.482-0.063-2.207,1.561-2.333
	c1.469-0.109,2.91-0.274,4.353,0.074c1.808,0.436,2.7,1.555,2.719,3.46c0.022,2.29,0.027,4.584-0.008,6.873
	c-0.011,0.43,0.377,1.188-0.606,1.146c-0.701-0.033-1.662,0.367-1.478-1.104c-1.244,0.785-2.368,1.432-3.753,1.402
	c-2.006-0.037-3.498-1.156-3.817-2.94c-0.361-2.008,0.506-3.443,2.505-4.207c1.348-0.515,2.769-0.559,4.171-0.657
	c1.089-0.074,1.036-0.589,0.691-1.323c-0.385-0.82-1.146-0.984-1.938-1.087C93.664,6.139,92.245,6.723,90.795,7.034z M97.228,13.371
	c-0.925-0.681-1.787-1.3-2.627-1.939c-0.513-0.389-0.968-0.792-1.669-0.316c-0.657,0.442-1.1,0.985-1.041,1.784
	c0.056,0.709,0.363,1.312,1.097,1.58C94.599,15.059,95.896,14.474,97.228,13.371z"/>
<path fill-rule="evenodd" clip-rule="evenodd" fill="#060606" d="M59.728,11.978c0,1.025,0.033,2.047-0.015,3.067
	c-0.022,0.414,0.316,1.178-0.426,1.154c-0.568-0.018-1.483,0.668-1.766-0.559c-0.14-0.615-0.484-0.145-0.722,0
	c-1.11,0.695-2.3,1.039-3.617,0.885c-1.695-0.203-2.982-1.439-3.237-3.091c-0.266-1.715,0.544-3.157,2.183-3.887
	c1.317-0.583,2.744-0.593,4.132-0.799c0.455-0.067,1.177,0.266,1.26-0.561c0.072-0.699-0.312-1.247-0.917-1.53
	c-0.91-0.427-1.893-0.437-2.871-0.271c-0.525,0.089-1.038,0.301-1.564,0.33c-0.41,0.018-1.04,0.882-1.232-0.134
	c-0.135-0.699-0.333-1.575,0.891-1.751c1.745-0.25,3.471-0.497,5.214-0.032c1.517,0.404,2.497,1.318,2.567,2.949
	c0.065,1.407,0.015,2.822,0.015,4.231C59.659,11.978,59.693,11.978,59.728,11.978z M57.458,11.714
	c-0.333-0.226,0.697-1.261-0.402-1.308c-1.346-0.06-2.741,0.051-3.951,0.77c-1.224,0.727-1.309,2.475-0.162,3.149
	c1.171,0.69,2.332,0.37,3.474-0.17C57.396,13.699,57.776,12.975,57.458,11.714z"/>
<path fill-rule="evenodd" clip-rule="evenodd" fill="#060606" d="M26.091,10.431c0-1.56-0.013-3.123,0.007-4.683
	c0.005-0.383-0.2-1.028,0.531-0.911c0.529,0.086,1.35-0.542,1.558,0.444c0.119,0.562,0.276,0.471,0.648,0.254
	c0.546-0.313,1.1-0.643,1.694-0.832c2.666-0.833,4.919,0.578,5.101,3.356c0.159,2.478,0.034,4.973,0.072,7.46
	c0.016,1.025-0.706,0.676-1.22,0.732c-0.603,0.07-1.001-0.023-0.982-0.82c0.048-2.147,0.037-4.297,0.006-6.441
	c-0.028-1.903-0.645-2.572-2.226-2.542c-1.866,0.038-3.07,1.069-3.072,2.64c0,2.099-0.043,4.196,0.021,6.296
	c0.031,0.895-0.417,0.9-1.064,0.881c-0.61-0.014-1.134,0.074-1.093-0.861C26.142,13.751,26.091,12.091,26.091,10.431z"/>
<path fill-rule="evenodd" clip-rule="evenodd" fill="#060606" d="M109.72,15.039c-1.321,0.898-2.43,1.57-3.828,1.516
	c-1.96-0.074-3.242-1.045-3.581-2.978c-0.476-2.704-0.124-5.446-0.2-8.167c-0.026-0.943,0.739-0.519,1.187-0.592
	c0.589-0.093,1.019,0,0.998,0.804c-0.044,1.948-0.06,3.9,0.005,5.849c0.029,1.084-0.182,2.402,1.105,2.942
	c1.397,0.586,2.655-0.053,3.835-0.821c0.511-0.336,0.436-0.814,0.436-1.293c0-2.143,0.033-4.29-0.017-6.436
	c-0.018-0.782,0.156-1.065,1.018-1.094c0.981-0.031,1.094,0.35,1.084,1.181c-0.045,3.022,0,6.046-0.036,9.065
	c-0.004,0.463,0.423,1.307-0.65,1.23C110.401,16.199,109.313,16.74,109.72,15.039z"/>
<path fill-rule="evenodd" clip-rule="evenodd" fill="#060606" d="M63.207,20.211c0.517-1.141,0.932-2.236,1.5-3.24
	c0.538-0.953,0.464-1.781,0.048-2.749c-1.319-3.069-2.559-6.178-3.822-9.248c1.687-0.574,2.502,0.014,3.002,1.57
	c0.68,2.117,1.6,4.159,2.531,6.526c0.929-2.36,1.833-4.404,2.526-6.522c0.479-1.444,1.182-2.156,2.787-1.635
	c0.216,0.422-0.164,0.767-0.314,1.128c-1.76,4.218-3.621,8.394-5.287,12.652C65.604,20.17,64.844,20.688,63.207,20.211z"/>
<path fill-rule="evenodd" clip-rule="evenodd" fill="#060606" d="M23.226,10.67c0,1.562,0.006,3.122-0.004,4.681
	c-0.003,0.4,0.162,1.02-0.562,0.881c-0.521-0.102-1.385,0.541-1.527-0.49c-0.114-0.84-0.457-0.381-0.734-0.203
	c-0.573,0.377-1.166,0.703-1.833,0.879c-2.558,0.668-4.74-0.693-4.937-3.317c-0.189-2.523-0.048-5.07-0.102-7.605
	c-0.02-0.951,0.623-0.654,1.093-0.677c0.518-0.029,1.073-0.158,1.052,0.732c-0.047,2.001-0.072,4.005,0.01,5.998
	c0.043,1.077-0.123,2.396,1.205,2.895c1.421,0.528,2.666-0.112,3.829-0.897c0.502-0.336,0.388-0.843,0.39-1.316
	c0.004-2.148,0.048-4.296-0.02-6.44c-0.03-0.915,0.362-0.985,1.11-1.009c0.835-0.023,1.081,0.235,1.048,1.062
	C23.182,7.45,23.226,9.061,23.226,10.67z"/>
<path fill-rule="evenodd" clip-rule="evenodd" fill="#060606" d="M79.621,8.678c0-2.195,0.053-4.391-0.023-6.581
	c-0.035-1.018,0.448-1.049,1.235-1.082c0.876-0.033,1.037,0.316,1.03,1.1c-0.038,3.657,0.024,7.312-0.042,10.97
	c-0.019,1.058,0.312,1.31,1.31,1.26c1.604-0.084,3.215-0.014,4.826-0.029c0.676-0.007,1.207-0.039,1.205,0.951
	c0,0.904-0.37,1.012-1.127,1.002c-2.438-0.037-4.878-0.061-7.314,0.01c-0.938,0.027-1.142-0.293-1.118-1.166
	C79.662,12.97,79.621,10.825,79.621,8.678z"/>
<path fill-rule="evenodd" clip-rule="evenodd" fill="#060606" d="M1.256,22.83c0-0.521,0-1.043,0-1.564c0-1.549,0-1.549,1.601-1.564
	c2.553-0.023,3.721,1.121,3.507,3.426c-0.139,1.482-1.03,2.424-2.5,2.629c-2.609,0.365-2.609,0.365-2.609-2.199
	C1.256,23.314,1.256,23.072,1.256,22.83z M5.383,22.67c0.032-0.879-0.286-1.568-1.086-1.982C2.938,19.99,2.25,20.385,2.25,21.869
	c0,0.598-0.031,1.203,0.011,1.801c0.035,0.498-0.287,1.213,0.208,1.441c0.618,0.285,1.344-0.002,1.937-0.375
	C5.163,24.266,5.41,23.525,5.383,22.67z"/>
<path fill-rule="evenodd" clip-rule="evenodd" fill="#060606" d="M33.3,25.664c-0.934,0.219-1.863,0.334-2.476-0.615
	c-0.54-0.838-0.544-1.75-0.078-2.625c0.448-0.836,1.191-1.135,2.118-0.992c0.115,0.018,0.239,0.145,0.331,0.121
	c2.001-0.547,1.323,0.957,1.368,1.83c0.042,0.832,0.046,1.688-0.087,2.508c-0.224,1.387-2.104,2.18-3.315,1.463
	c-0.223-0.131-0.375-0.281-0.23-0.572c0.17-0.342,0.424-0.146,0.613-0.084c0.908,0.275,1.662,0.252,1.973-0.844
	c0.002-0.094,0.004-0.186,0.006-0.277C33.449,25.607,33.373,25.633,33.3,25.664z M33.592,23.729
	c-0.002-0.928-0.208-1.619-1.089-1.572c-0.837,0.043-1.04,0.744-1.062,1.484c-0.023,0.777,0.312,1.471,1.072,1.477
	C33.376,25.121,33.638,24.365,33.592,23.729z"/>
<path fill-rule="evenodd" clip-rule="evenodd" fill="#060606" d="M17.687,21.643c0-0.684,0.001-1.242-0.001-1.799
	c0-0.322-0.049-0.633,0.458-0.633c0.42,0,0.55,0.143,0.545,0.553c-0.014,1.84-0.004,3.678-0.007,5.518
	c0,0.238-0.027,0.619-0.317,0.488c-0.783-0.361-1.513,0.133-2.271,0.021c-1.051-0.148-1.687-1.123-1.562-2.439
	c0.117-1.223,1.006-2.047,2.138-1.951C16.979,21.428,17.281,21.543,17.687,21.643z M17.684,23.717
	c0.043-0.822-0.098-1.568-1.047-1.568c-0.835,0.004-1.078,0.695-1.117,1.43c-0.042,0.822,0.285,1.533,1.12,1.543
	C17.403,25.129,17.787,24.492,17.684,23.717z"/>
<path fill-rule="evenodd" clip-rule="evenodd" fill="#060606" d="M56.045,21.652c0-0.67,0.014-1.268-0.004-1.863
	c-0.011-0.375,0.049-0.602,0.515-0.578c0.357,0.016,0.49,0.131,0.489,0.486c-0.011,1.879-0.012,3.76,0.001,5.639
	c0.002,0.379-0.266,0.613-0.487,0.43c-0.493-0.404-0.888-0.051-1.325,0.012c-0.851,0.113-1.626-0.021-2.056-0.852
	c-0.474-0.918-0.464-1.867,0.136-2.727c0.508-0.727,1.249-0.957,2.113-0.727C55.612,21.52,55.788,21.576,56.045,21.652z
	 M56.04,23.684c0.051-0.771-0.088-1.484-0.953-1.527c-0.923-0.055-1.17,0.666-1.207,1.449c-0.038,0.82,0.297,1.523,1.143,1.512
	C55.795,25.1,56.147,24.453,56.04,23.684z"/>
<path fill-rule="evenodd" clip-rule="evenodd" fill="#060606" d="M72.689,21.643c0-0.711,0.008-1.309-0.003-1.906
	c-0.004-0.314,0.043-0.521,0.446-0.525c0.403-0.008,0.563,0.111,0.562,0.535c-0.017,1.842-0.008,3.68-0.01,5.52
	c0,0.23-0.015,0.635-0.301,0.5c-0.823-0.393-1.594,0.184-2.393,0.018c-1.004-0.207-1.62-1.254-1.448-2.537
	c0.153-1.154,1.03-1.932,2.115-1.846C71.967,21.424,72.271,21.543,72.689,21.643z M72.687,23.648
	c0.043-0.803-0.139-1.492-1.008-1.496c-0.913-0.004-1.129,0.729-1.154,1.508c-0.029,0.781,0.325,1.451,1.083,1.461
	C72.455,25.129,72.792,24.441,72.687,23.648z"/>
<path fill-rule="evenodd" clip-rule="evenodd" fill="#060606" d="M22.309,23.725c-0.237,0-0.329-0.027-0.398,0
	c-0.412,0.172-1.229-0.41-1.223,0.391c0.005,0.783,0.788,1.002,1.514,1.07c0.417,0.037,1.137-0.6,1.183,0.104
	c0.05,0.725-0.845,0.449-1.341,0.5c-0.944,0.09-1.777-0.139-2.184-1.109c-0.407-0.967-0.355-1.926,0.407-2.682
	c0.646-0.641,1.473-0.77,2.349-0.438c0.835,0.316,1.272,1.002,1.085,1.787C23.505,24.174,22.64,23.422,22.309,23.725z
	 M22.753,23.041c-0.144-0.701-0.513-0.965-1.034-0.957c-0.572,0.01-0.945,0.314-1.029,0.957
	C21.375,23.041,22.034,23.041,22.753,23.041z"/>
<path fill-rule="evenodd" clip-rule="evenodd" fill="#060606" d="M77.147,25.789c-1.106,0.064-1.909-0.178-2.305-1.152
	c-0.376-0.932-0.322-1.844,0.376-2.588c0.626-0.668,1.442-0.799,2.33-0.521c0.555,0.172,0.886,0.541,1.077,1.051
	c0.274,0.744,0.234,1.27-0.794,1.154c-0.478-0.059-0.965-0.023-1.447-0.004c-0.254,0.012-0.611-0.146-0.727,0.199
	c-0.109,0.342,0.13,0.629,0.376,0.832c0.42,0.34,0.9,0.496,1.455,0.383c0.343-0.068,0.883-0.49,0.938,0.189
	c0.041,0.551-0.591,0.375-0.947,0.447C77.324,25.814,77.156,25.789,77.147,25.789z M77.758,23.025
	c-0.129-0.656-0.494-0.969-1.073-0.941c-0.557,0.025-0.925,0.336-0.987,0.941C76.396,23.025,77.051,23.025,77.758,23.025z"/>
<path fill-rule="evenodd" clip-rule="evenodd" fill="#060606" d="M66.613,25.799c-1.352,0.008-2.154-0.793-2.151-2.15
	c0-1.344,0.933-2.275,2.25-2.256c1.209,0.016,2.081,0.896,2.12,2.139C68.875,24.871,67.979,25.791,66.613,25.799z M67.853,23.598
	c-0.122-0.697-0.312-1.457-1.228-1.453c-0.827,0.008-1.123,0.652-1.165,1.398c-0.046,0.826,0.318,1.527,1.127,1.574
	C67.432,25.162,67.757,24.426,67.853,23.598z"/>
<path fill-rule="evenodd" clip-rule="evenodd" fill="#060606" d="M9.379,25.799c-1.336-0.01-2.12-0.84-2.092-2.209
	c0.026-1.289,0.916-2.178,2.191-2.197c1.253-0.02,2.173,0.912,2.179,2.201C11.666,24.938,10.76,25.811,9.379,25.799z M10.677,23.586
	c-0.126-0.697-0.316-1.453-1.236-1.441c-0.826,0.012-1.118,0.658-1.156,1.412c-0.039,0.82,0.324,1.518,1.137,1.561
	C10.266,25.154,10.588,24.418,10.677,23.586z"/>
<path fill-rule="evenodd" clip-rule="evenodd" fill="#060606" d="M46.427,24.168c0,0.328-0.026,0.648,0.006,0.969
	c0.056,0.623-0.207,0.877-0.75,0.547c-0.521-0.318-0.883,0.174-1.356,0.143c-0.713-0.047-1.319-0.193-1.494-0.928
	c-0.185-0.783,0.255-1.301,0.96-1.592c0.26-0.104,0.559-0.115,0.803-0.238c0.259-0.131,0.864,0.297,0.759-0.391
	c-0.074-0.469-0.495-0.584-0.936-0.557c-0.04,0.004-0.089,0.02-0.119,0.008c-0.357-0.166-0.951,0.674-1.049-0.084
	c-0.087-0.693,0.738-0.584,1.192-0.633c1.279-0.143,1.929,0.479,1.979,1.799C46.434,23.529,46.427,23.852,46.427,24.168z
	 M45.045,23.645c-0.473,0.211-1.181,0.123-1.241,0.885c-0.026,0.369,0.286,0.633,0.609,0.613c0.545-0.025,1.012-0.271,1.008-0.932
	C45.419,23.967,45.535,23.602,45.045,23.645z"/>
<path fill-rule="evenodd" clip-rule="evenodd" fill="#060606" d="M47.815,23.557c0-0.285-0.077-0.592,0.016-0.836
	c0.172-0.469-0.656-2.049,1.014-0.99c0.042,0.027,0.141-0.055,0.214-0.064c2.139-0.369,2.644,0.053,2.646,2.195
	c0.003,0.4,0.014,0.803-0.001,1.201c-0.011,0.33,0.144,0.74-0.47,0.748c-0.567,0.008-0.53-0.33-0.525-0.701
	c0.006-0.604,0.023-1.201-0.006-1.803c-0.03-0.607-0.248-1.174-0.962-1.115c-0.645,0.045-0.941,0.531-0.929,1.186
	c0.008,0.479,0.048,0.965-0.015,1.438c-0.047,0.352,0.351,0.965-0.45,0.98c-0.882,0.016-0.453-0.658-0.514-1.043
	C47.766,24.365,47.815,23.955,47.815,23.557z"/>
<path fill-rule="evenodd" clip-rule="evenodd" fill="#060606" d="M35.995,23.451c0-0.363-0.011-0.723,0.003-1.084
	c0.018-0.584-0.208-1.484,0.906-0.688c0.141,0.1,0.505-0.119,0.765-0.188c1.082-0.291,1.826,0.107,2.109,1.17
	c0.241,0.902,0.051,1.834,0.106,2.746c0.018,0.33-0.184,0.387-0.457,0.395c-0.314,0.004-0.547-0.033-0.542-0.441
	c0.012-0.678,0.023-1.355-0.006-2.039c-0.023-0.605-0.233-1.174-0.947-1.135c-0.645,0.037-0.95,0.518-0.944,1.172
	c0.005,0.641-0.008,1.281,0.003,1.922c0.008,0.326-0.061,0.518-0.452,0.525c-0.419,0.012-0.569-0.145-0.551-0.555
	C36.012,24.652,35.995,24.051,35.995,23.451z"/>
<path fill-rule="evenodd" clip-rule="evenodd" fill="#060606" d="M25.4,25.795c-0.08-0.004-0.324-0.004-0.558-0.053
	c-0.307-0.062-0.526-0.227-0.398-0.592c0.119-0.334,0.364-0.221,0.592-0.152c0.04,0.012,0.079,0.02,0.116,0.037
	c0.457,0.234,0.93,0.188,1.138-0.268c0.275-0.605-0.333-0.709-0.707-0.883c-0.741-0.338-1.45-0.721-0.983-1.689
	c0.422-0.881,1.24-0.906,2.073-0.703c0.266,0.061,0.567,0.143,0.438,0.553c-0.112,0.354-0.321,0.227-0.561,0.164
	c-0.424-0.107-0.962-0.271-1.094,0.326c-0.117,0.529,0.458,0.586,0.802,0.725c0.692,0.277,1.259,0.652,1.08,1.492
	C27.138,25.688,26.376,25.818,25.4,25.795z"/>
<path fill-rule="evenodd" clip-rule="evenodd" fill="#060606" d="M62.388,25.803c-0.908,0.031-1.663-0.215-2.055-1.123
	c-0.402-0.928-0.322-1.822,0.364-2.566c0.643-0.701,1.513-0.852,2.427-0.643c0.193,0.045,0.523,0.045,0.491,0.387
	c-0.036,0.402-0.298,0.33-0.606,0.316c-1.333-0.053-1.942,0.467-1.893,1.535c0.049,1.021,0.653,1.449,1.903,1.34
	c0.23-0.023,0.489-0.146,0.568,0.207c0.082,0.387-0.171,0.486-0.482,0.51C62.866,25.783,62.625,25.791,62.388,25.803z"/>
<path fill-rule="evenodd" clip-rule="evenodd" fill="#060606" d="M29.513,23.68c0,0.516-0.017,1.037,0.003,1.555
	c0.016,0.393-0.087,0.584-0.528,0.572c-0.373-0.016-0.477-0.168-0.473-0.506c0.008-1.158,0.01-2.32-0.003-3.479
	c-0.004-0.402,0.217-0.43,0.533-0.438c0.377-0.012,0.479,0.158,0.47,0.498C29.5,22.482,29.511,23.08,29.513,23.68z"/>
<path fill-rule="evenodd" clip-rule="evenodd" fill="#060606" d="M80.176,25.791c-0.38,0.039-0.654-0.107-0.703-0.479
	c-0.06-0.449,0.261-0.648,0.642-0.672c0.347-0.021,0.596,0.154,0.603,0.564C80.719,25.584,80.569,25.803,80.176,25.791z"/>
<path fill-rule="evenodd" clip-rule="evenodd" fill="#302C2D" d="M29.522,20.211c-0.036,0.457-0.305,0.557-0.656,0.549
	c-0.307-0.012-0.555-0.123-0.561-0.463c-0.008-0.373,0.227-0.58,0.584-0.6C29.258,19.678,29.443,19.92,29.522,20.211z"/>
<path fill-rule="evenodd" clip-rule="evenodd" fill="#FFFFFF" d="M33.3,25.664c0.073-0.031,0.148-0.057,0.223-0.088
	c-0.001,0.092-0.003,0.184-0.006,0.277C33.444,25.791,33.371,25.727,33.3,25.664z"/>
</svg>
