<?xml version="1.0" encoding="utf-8"?>
<!-- Generator: Adobe Illustrator 16.0.0, SVG Export Plug-In . SVG Version: 6.00 Build 0)  -->
<!DOCTYPE svg PUBLIC "-//W3C//DTD SVG 1.1//EN" "http://www.w3.org/Graphics/SVG/1.1/DTD/svg11.dtd">
<svg version="1.1" id="Layer_1" xmlns="http://www.w3.org/2000/svg" xmlns:xlink="http://www.w3.org/1999/xlink" x="0px" y="0px"
	 width="370px" height="160px" viewBox="0 0 370 160" enable-background="new 0 0 370 160" xml:space="preserve">
<g>
	<circle fill="#B4E02B" cx="5" cy="5" r="5"/>
	<circle fill="#B4E02B" cx="35" cy="5" r="5"/>
	<circle fill="#B4E02B" cx="65" cy="5" r="5"/>
	<circle fill="#B4E02B" cx="95" cy="5" r="5"/>
	<circle fill="#B4E02B" cx="125" cy="5" r="5"/>
	<circle fill="#B4E02B" cx="155" cy="5" r="5"/>
	<circle fill="#B4E02B" cx="185" cy="5" r="5"/>
	<circle fill="#B4E02B" cx="215" cy="5" r="5"/>
	<circle fill="#B4E02B" cx="245" cy="5" r="5"/>
	<circle fill="#B4E02B" cx="275" cy="5" r="5"/>
	<circle fill="#B4E02B" cx="305" cy="5" r="5"/>
	<circle fill="#B4E02B" cx="335" cy="5" r="5"/>
	<circle fill="#B4E02B" cx="365" cy="5" r="5"/>
	<circle fill="#B4E02B" cx="5" cy="35" r="5"/>
	<circle fill="#B4E02B" cx="35" cy="35" r="5"/>
	<circle fill="#B4E02B" cx="65" cy="35" r="5"/>
	<circle fill="#B4E02B" cx="95" cy="35" r="5"/>
	<circle fill="#B4E02B" cx="125" cy="35" r="5"/>
	<circle fill="#B4E02B" cx="155" cy="35" r="5"/>
	<circle fill="#B4E02B" cx="185" cy="35" r="5"/>
	<circle fill="#B4E02B" cx="215" cy="35" r="5"/>
	<circle fill="#B4E02B" cx="245" cy="35" r="5"/>
	<circle fill="#B4E02B" cx="275" cy="35" r="5"/>
	<circle fill="#B4E02B" cx="305" cy="35" r="5"/>
	<circle fill="#B4E02B" cx="335" cy="35" r="5"/>
	<circle fill="#B4E02B" cx="365" cy="35" r="5"/>
</g>
<circle fill="#CECE1B" cx="5" cy="65" r="5"/>
<circle fill="#CECE1B" cx="35" cy="65" r="5"/>
<circle fill="#CECE1B" cx="65" cy="65" r="5"/>
<circle fill="#CECE1B" cx="95" cy="65" r="5"/>
<circle fill="#CECE1B" cx="125" cy="65" r="5"/>
<circle fill="#CECE1B" cx="155" cy="65" r="5"/>
<circle fill="#FFFFFF" cx="185" cy="65" r="5"/>
<circle fill="#FFFFFF" cx="215" cy="65" r="5"/>
<circle fill="#FFFFFF" cx="245" cy="65" r="5"/>
<circle fill="#FFFFFF" cx="275" cy="65" r="5"/>
<circle fill="#FFFFFF" cx="305" cy="65" r="5"/>
<circle fill="#FFFFFF" cx="335" cy="65" r="5"/>
<circle fill="#FFFFFF" cx="365" cy="65" r="5"/>
<circle fill="#CECE1B" cx="5" cy="95" r="5"/>
<circle fill="#CECE1B" cx="35" cy="95" r="5"/>
<circle fill="#CECE1B" cx="65" cy="95" r="5"/>
<circle fill="#CECE1B" cx="95" cy="95" r="5"/>
<circle fill="#CECE1B" cx="125" cy="95" r="5"/>
<circle fill="#CECE1B" cx="155" cy="95" r="5"/>
<circle fill="#FFFFFF" cx="185" cy="95" r="5"/>
<circle fill="#FFFFFF" cx="215" cy="95" r="5"/>
<circle fill="#FFFFFF" cx="245" cy="95" r="5"/>
<circle fill="#FFFFFF" cx="275" cy="95" r="5"/>
<circle fill="#FFFFFF" cx="305" cy="95" r="5"/>
<circle fill="#FFFFFF" cx="335" cy="95" r="5"/>
<circle fill="#FFFFFF" cx="365" cy="95" r="5"/>
<circle fill="#D6DE23" cx="5" cy="125" r="5"/>
<circle fill="#D6DE23" cx="35" cy="125" r="5"/>
<circle fill="#D6DE23" cx="65" cy="125" r="5"/>
<circle fill="#D6DE23" cx="95" cy="125" r="5"/>
<circle fill="#D6DE23" cx="125" cy="125" r="5"/>
<circle fill="#D6DE23" cx="155" cy="125" r="5"/>
<circle fill="#D6DE23" cx="185" cy="125" r="5"/>
<circle fill="#D6DE23" cx="215" cy="125" r="5"/>
<circle fill="#FFFFFF" cx="245" cy="125" r="5"/>
<circle fill="#FFFFFF" cx="275" cy="125" r="5"/>
<circle fill="#FFFFFF" cx="305" cy="125" r="5"/>
<circle fill="#FFFFFF" cx="335" cy="125" r="5"/>
<circle fill="#FFFFFF" cx="365" cy="125" r="5"/>
<circle fill="#D6DE23" cx="5" cy="155" r="5"/>
<circle fill="#D6DE23" cx="35" cy="155" r="5"/>
<circle fill="#D6DE23" cx="65" cy="155" r="5"/>
<circle fill="#D6DE23" cx="95" cy="155" r="5"/>
<circle fill="#D6DE23" cx="125" cy="155" r="5"/>
<circle fill="#D6DE23" cx="155" cy="155" r="5"/>
<circle fill="#D6DE23" cx="185" cy="155" r="5"/>
<circle fill="#D6DE23" cx="215" cy="155" r="5"/>
<circle fill="#FFFFFF" cx="245" cy="155" r="5"/>
<circle fill="#FFFFFF" cx="275" cy="155" r="5"/>
<circle fill="#FFFFFF" cx="305" cy="155" r="5"/>
<circle fill="#FFFFFF" cx="335" cy="155" r="5"/>
<circle fill="#FFFFFF" cx="365" cy="155" r="5"/>
</svg>
