<?xml version="1.0" encoding="utf-8"?>
<!-- Generator: Adobe Illustrator 16.0.0, SVG Export Plug-In . SVG Version: 6.00 Build 0)  -->
<!DOCTYPE svg PUBLIC "-//W3C//DTD SVG 1.1//EN" "http://www.w3.org/Graphics/SVG/1.1/DTD/svg11.dtd">
<svg version="1.1" id="Layer_1" xmlns="http://www.w3.org/2000/svg" xmlns:xlink="http://www.w3.org/1999/xlink" x="0px" y="0px"
	 width="1170px" height="256px" viewBox="0 0 1170 256" enable-background="new 0 0 1170 256" xml:space="preserve">
<path fill="#D6DE23" d="M29,0h1112c16.016,0,29,12.984,29,29v198c0,16.016-12.984,29-29,29H29c-16.017,0-29-12.984-29-29V29
	C0,12.984,12.984,0,29,0z"/>
<g>
	<defs>
		<path id="SVGID_1_" d="M29,0h1112c16.016,0,29,12.984,29,29v198c0,16.016-12.984,29-29,29H29c-16.017,0-29-12.984-29-29V29
			C0,12.984,12.984,0,29,0z"/>
	</defs>
	<clipPath id="SVGID_2_">
		<use xlink:href="#SVGID_1_"  overflow="visible"/>
	</clipPath>
	<g transform="translate(0 -.493)" opacity="0.3" clip-path="url(#SVGID_2_)" enable-background="new    ">
		
			<linearGradient id="SVGID_3_" gradientUnits="userSpaceOnUse" x1="287.759" y1="546.7635" x2="287.753" y2="547.8245" gradientTransform="matrix(1170 0 0 -250.8881 -336087.7812 137406.5625)">
			<stop  offset="0" style="stop-color:#6FE6C7"/>
			<stop  offset="1" style="stop-color:#E0E31C"/>
		</linearGradient>
		<path fill="url(#SVGID_3_)" d="M0,106.932l9.75,14.277C19.5,135.486,39,164.04,58.5,145.034C78,125.671,97.5,59.64,117,45.095
			c19.5-14.009,39,23.468,58.5,38.013c19.5,14.009,39,5.086,58.5,0c19.5-4.729,39-4.729,58.5-14.277
			c19.5-9.191,39-28.822,58.5-4.729c19.5,24.093,39,90.124,58.5,123.763c19.5,33.283,39,33.283,58.5,4.729
			c19.5-28.555,39-85.663,58.5-114.217c19.5-28.554,39-28.554,58.5-38.1c19.5-9.191,39-28.822,58.5-4.729
			c19.5,24.093,39,90.124,58.5,123.764c19.5,33.283,39,33.283,58.5,4.729c19.5-28.554,39-85.662,58.5-104.668
			c19.5-19.363,39,0.268,58.5,28.554c19.5,28.822,39,66.299,58.5,95.122c19.5,28.285,39,47.916,58.5,14.276
			c19.5-33.283,39-118.945,58.5-128.493c19.5-9.191,39,56.84,58.5,57.108c19.5-0.268,39-66.3,48.75-99.939L1170-7.284v-28.554H0
			V106.932z"/>
	</g>
</g>
</svg>
